<svg width="18" height="19" viewBox="0 0 18 19" fill="none" xmlns="http://www.w3.org/2000/svg">
<g id="__Assets / Twitter / Logo / Symbol">
<rect width="18" height="18" transform="translate(0 0.5)" fill="white"/>
<g id="Group">
<path id="Vector" d="M17.7323 4.20278C17.106 4.48028 16.4333 4.66778 15.726 4.75253C16.4475 4.32053 17.001 3.63503 17.262 2.81903C16.587 3.21953 15.8393 3.51053 15.0435 3.66653C14.406 2.98853 13.4985 2.56403 12.4935 2.56403C10.5645 2.56403 9.00001 4.12853 9.00001 6.05903C9.00001 6.33203 9.03151 6.59753 9.09001 6.85403C6.18526 6.70778 3.61201 5.31653 1.88851 3.20303C1.58851 3.72053 1.41601 4.32053 1.41601 4.95953C1.41601 6.17153 2.03326 7.24178 2.97001 7.86803C2.39701 7.84928 1.85851 7.69253 1.38751 7.43078V7.47578C1.38751 9.16853 2.59126 10.5808 4.19026 10.9018C3.89626 10.9813 3.58801 11.0233 3.27001 11.0233C3.04501 11.0233 2.82526 11.0023 2.61226 10.9618C3.05701 12.3493 4.34701 13.3603 5.87626 13.3873C4.68001 14.3248 3.17326 14.8835 1.53676 14.8835C1.25476 14.8835 0.976509 14.867 0.702759 14.8348C2.24926 15.827 4.08526 16.4045 6.05776 16.4045C12.4853 16.4045 15.999 11.081 15.999 6.46403C15.999 6.31403 15.9953 6.16253 15.9885 6.01253C16.671 5.51903 17.2635 4.90478 17.7308 4.20503L17.7323 4.20278Z" fill="#1B97F0"/>
</g>
</g>
</svg>
