<svg width="45" height="46" viewBox="0 0 45 46" fill="none" xmlns="http://www.w3.org/2000/svg">
<g id="Logo">
<path id="Vector" d="M44.5 23C44.5 35.1 34.6 45 22.5 45C10.4 45 0.5 35.1 0.5 23C0.5 10.9 10.4 1 22.5 1C34.6 1 44.5 10.9 44.5 23Z" fill="black"/>
<g id="Logo_2">
<path id="Path" d="M14.3182 12.7727H24.5454C30.1938 12.7727 34.7727 17.3516 34.7727 23C34.7727 28.6483 30.1938 33.2273 24.5454 33.2273H14.3182V12.7727Z" stroke="url(#paint0_linear_2235_3107)" stroke-width="0.966342"/>
<path id="Shape" d="M31.0479 15.1605C29.3013 13.7272 27.2611 12.797 24.8281 12.7727L14.5707 23L24.8281 33.2273C27.261 33.2029 29.3013 32.2464 31.0479 30.8133C31.0056 30.7709 28.2654 28.126 27.2729 27.1365C26.2804 26.1471 23.8069 23.7419 23.0625 23C23.0625 23 31.0056 15.2029 31.0479 15.1605Z" stroke="url(#paint1_linear_2235_3107)" stroke-width="0.966342"/>
</g>
</g>
<defs>
<linearGradient id="paint0_linear_2235_3107" x1="14.3182" y1="12.7727" x2="14.3182" y2="33.2273" gradientUnits="userSpaceOnUse">
<stop stop-color="#9EE1EC"/>
<stop offset="1" stop-color="#E5A7E0"/>
</linearGradient>
<linearGradient id="paint1_linear_2235_3107" x1="14.5707" y1="12.7727" x2="14.5707" y2="33.2273" gradientUnits="userSpaceOnUse">
<stop stop-color="#9EE1EC"/>
<stop offset="1" stop-color="#E5A7E0"/>
</linearGradient>
</defs>
</svg>
